<svg xmlns="http://www.w3.org/2000/svg" viewBox="0 0 48 48" fill="#FFB300">
  <circle cx="24" cy="20" r="10"/>
  <rect x="22.5" y="2" width="3" height="6" rx="1.5"/>
  <rect x="22.5" y="32" width="3" height="6" rx="1.5"/>
  <rect x="2" y="18.5" width="6" height="3" rx="1.5"/>
  <rect x="32" y="18.5" width="6" height="3" rx="1.5"/>
  <rect x="8.6" y="6.6" width="3" height="6" rx="1.5" transform="rotate(-45 10.1 9.6)"/>
  <rect x="28.4" y="26.4" width="3" height="6" rx="1.5" transform="rotate(-45 29.9 29.4)"/>
  <rect x="28.4" y="6.6" width="3" height="6" rx="1.5" transform="rotate(45 29.9 9.6)"/>
  <rect x="8.6" y="26.4" width="3" height="6" rx="1.5" transform="rotate(45 10.1 29.4)"/>
  <path d="M24 32a12 12 0 1 0 0-24 12 12 0 0 0 0 24z" fill="none" stroke="#FFB300" stroke-width="1.5" stroke-dasharray="4 3"/>
</svg>